<?xml version="1.0" encoding="utf-8"?>
<!-- Generator: Adobe Illustrator 24.2.1, SVG Export Plug-In . SVG Version: 6.00 Build 0)  -->
<svg version="1.1" xmlns="http://www.w3.org/2000/svg" xmlns:xlink="http://www.w3.org/1999/xlink" x="0px" y="0px"
	 viewBox="0 0 123.56 157.05" style="enable-background:new 0 0 123.56 157.05;" xml:space="preserve">
<style type="text/css">
	.st0{fill:#000942;}
	.st1{fill:#4D4D4D;}
	.st2{fill:#4A00E0;}
	.st3{fill:#FFFFFF;}
	.st4{fill:none;stroke:#FFFFFF;stroke-width:0.81;stroke-linecap:round;stroke-linejoin:round;stroke-miterlimit:10;}
	.st5{clip-path:url(#SVGID_2_);}
	.st6{clip-path:url(#SVGID_4_);}
	.st7{clip-path:url(#SVGID_6_);}
	.st8{fill-rule:evenodd;clip-rule:evenodd;fill:#FFFFFF;}
	.st9{fill:#F1FF56;}
	.st10{clip-path:url(#SVGID_8_);}
	.st11{clip-path:url(#SVGID_10_);}
	.st12{fill:#EFEFEF;}
	.st13{fill:#CBFCF8;}
	.st14{fill:#FCFF5C;}
</style>
<g id="Back">
	<g>
		<path class="st1" d="M0.16,131.47h3.41c3.08,0,5.22,2.12,5.22,4.88v0.03c0,2.76-2.13,4.91-5.22,4.91H0.16V131.47z M3.57,140.26
			c2.48,0,4.07-1.68,4.07-3.86v-0.03c0-2.17-1.58-3.88-4.07-3.88h-2.3v7.77H3.57z"/>
		<path class="st1" d="M12.53,131.47h7.1v1.01h-5.99v3.35h5.36v1.01h-5.36v3.44h6.06v1.01h-7.17V131.47z"/>
		<path class="st1" d="M22.48,131.47h1.23l3.49,8.46l3.51-8.46h1.19l-4.22,9.89H26.7L22.48,131.47z"/>
		<path class="st1" d="M35.24,131.47h7.1v1.01h-5.99v3.35h5.36v1.01h-5.36v3.44h6.06v1.01h-7.17V131.47z"/>
		<path class="st1" d="M46.04,131.47h1.11v8.79h5.52v1.02h-6.63V131.47z"/>
		<path class="st1" d="M55.13,136.4v-0.03c0-2.71,2.03-5.08,5.02-5.08c2.99,0,4.99,2.34,4.99,5.05v0.03c0,2.71-2.03,5.08-5.02,5.08
			C57.13,141.45,55.13,139.11,55.13,136.4z M63.99,136.4v-0.03c0-2.23-1.63-4.05-3.87-4.05s-3.84,1.79-3.84,4.02v0.03
			c0,2.23,1.63,4.05,3.87,4.05S63.99,138.63,63.99,136.4z"/>
		<path class="st1" d="M68.89,131.47h3.67c2.22,0,3.67,1.18,3.67,3.11v0.03c0,2.12-1.77,3.21-3.86,3.21h-2.38v3.46h-1.11V131.47z
			 M72.42,136.81c1.63,0,2.69-0.87,2.69-2.16v-0.03c0-1.4-1.05-2.13-2.64-2.13h-2.48v4.32H72.42z"/>
		<path class="st1" d="M79.66,131.47h1.12l3.58,5.36l3.58-5.36h1.12v9.82h-1.11v-7.95l-3.58,5.26h-0.06l-3.58-5.24v7.94h-1.08
			V131.47z"/>
		<path class="st1" d="M93.23,131.47h7.1v1.01h-5.99v3.35h5.36v1.01h-5.36v3.44h6.06v1.01h-7.17V131.47z"/>
		<path class="st1" d="M104.03,131.47h1.04l6.18,7.87v-7.87h1.08v9.82h-0.88l-6.34-8.05v8.05h-1.08V131.47z"/>
		<path class="st1" d="M119.1,132.49h-3.3v-1.02h7.71v1.02h-3.3v8.79h-1.12V132.49z"/>
	</g>
	<rect x="0" class="st2" width="123.56" height="123.56"/>
	<g>
		<path class="st3" d="M35.34,41.48c4.23,0,7.67,1.62,10.34,4.85v-0.64c0-0.19,0-0.41,0-0.64c-0.08-0.23-0.11-0.37-0.11-0.41
			c-0.08-0.86-0.11-1.25-0.11-1.17c0-1.32,0.59-1.99,1.77-1.99c1.25,0,1.88,0.8,1.88,2.4c0,0.31-0.04,1.22-0.11,2.74
			c-0.23,1.9-0.34,3.22-0.34,3.94c0,1.03,0.07,2.08,0.2,3.14l0.26,2.17v0.57c0,1.71-0.68,2.57-2.06,2.57
			c-1.49,0-2.21-0.81-2.17-2.44v-2.04c0.08-2.72-0.78-4.93-2.56-6.63c-1.78-1.7-4.12-2.55-7.01-2.55c-3.76,0-6.7,1.45-8.83,4.34
			c-2.13,2.89-3.19,6.89-3.19,11.99c0,5.22,1.09,9.28,3.28,12.19c2.19,2.91,5.24,4.37,9.17,4.37c2.13,0,4.04-0.51,5.74-1.54
			c1.69-1.03,2.88-2.38,3.57-4.05c0.46-1.1,0.69-2.59,0.69-4.45c0-1.75,0.72-2.63,2.17-2.63c1.56,0,2.34,0.88,2.34,2.63
			c0,4.07-1.41,7.41-4.23,9.99c-2.82,2.59-6.45,3.88-10.91,3.88c-5.14,0-9.24-1.81-12.31-5.43c-3.07-3.62-4.6-8.43-4.6-14.45
			c0-6.21,1.57-11.21,4.71-15.02C26.06,43.38,30.2,41.48,35.34,41.48z"/>
		<path class="st3" d="M63.21,53.99v1.66c1.37-1.64,2.66-2.77,3.88-3.4c1.22-0.63,2.74-0.94,4.57-0.94c3.73,0,6.47,1.45,8.22,4.34
			c1.29-1.6,2.61-2.72,3.94-3.37c1.33-0.65,3.05-0.97,5.14-0.97c2.17,0,4.11,0.46,5.83,1.37c1.9,1.03,3.22,2.48,3.94,4.35
			c0.49,1.26,0.74,3.24,0.74,5.95v5.55v4.29c0,1.57,0.02,2.52,0.06,2.86c0.19,1.37,0.68,2.06,1.47,2.06c0.26,0,0.66-0.07,1.19-0.2
			c0.53-0.13,0.92-0.2,1.19-0.2c1.32,0,1.98,0.57,1.98,1.71c0,1.33-0.76,2-2.29,2c-0.57,0-1.44-0.07-2.6-0.2
			c-1.16-0.13-2.05-0.2-2.66-0.2c-0.65,0-1.59,0.07-2.83,0.2c-1.24,0.13-2.18,0.2-2.83,0.2c-1.6,0-2.4-0.67-2.4-2
			c0-1.14,0.61-1.71,1.83-1.71c0.15,0,0.53,0.04,1.14,0.11c0.23,0.08,0.53,0.11,0.91,0.11c0.65,0,1.06-0.32,1.23-0.97
			c0.17-0.65,0.28-2.26,0.31-4.85v-3.48v-3.77c0-2.63-0.2-4.54-0.6-5.74c-0.4-1.2-1.15-2.14-2.25-2.83
			c-1.1-0.69-2.35-1.03-3.75-1.03c-2.69,0-4.57,0.93-5.63,2.8c-0.83,1.48-1.25,4.07-1.25,7.77v4.06c0,3.58,0.08,5.82,0.26,6.71
			c0.17,0.9,0.62,1.34,1.34,1.34c0.23,0,0.56-0.04,1-0.11c0.44-0.08,0.77-0.11,1-0.11c0.53,0,0.98,0.18,1.34,0.53
			c0.36,0.36,0.54,0.8,0.54,1.32c0,1.24-0.9,1.86-2.68,1.86c-0.57,0-1.42-0.08-2.54-0.23c-1.12-0.15-1.97-0.23-2.54-0.23
			c-0.8,0-1.68,0.08-2.63,0.23c-0.95,0.15-1.79,0.23-2.51,0.23c-1.56,0-2.34-0.65-2.34-1.94c0-1.18,0.57-1.77,1.71-1.77
			c0.42,0,0.74,0.05,0.97,0.16c0.53,0.16,0.93,0.24,1.2,0.24c0.91,0,1.39-0.98,1.43-2.93l0.17-2.7c0-0.84,0-1.66,0-2.47
			c0-0.69,0-1.05,0-1.09V63.8c0-3.33-0.45-5.64-1.34-6.95c-0.89-1.3-2.48-1.95-4.77-1.95c-2.51,0-4.44,0.92-5.77,2.75
			c-1.11,1.49-1.66,4.1-1.66,7.81v7.63c0,1.53,0.02,2.43,0.06,2.7c0.15,1.3,0.57,1.95,1.26,1.95c0.19,0,0.59-0.11,1.2-0.32
			c0.08,0,0.19-0.03,0.34-0.08c0.15,0,0.29,0,0.4,0c1.48,0,2.23,0.63,2.23,1.88c0,1.22-0.86,1.83-2.57,1.83
			c-0.65,0-1.45-0.06-2.4-0.17c-1.29-0.15-2.4-0.23-3.31-0.23c-0.46,0-1.29,0.06-2.51,0.17c-1.64,0.15-2.63,0.23-2.97,0.23
			c-1.52,0-2.28-0.65-2.28-1.94c0-1.18,0.74-1.77,2.21-1.77c0.08,0,0.19,0,0.35,0c0.16,0.04,0.27,0.06,0.35,0.06l1.45,0.29
			c0.04,0.04,0.12,0.06,0.23,0.06c1.05,0,1.61-0.93,1.69-2.8v-3.26v-8.74c0-3.24-0.09-5.25-0.26-6.05c-0.17-0.8-0.64-1.2-1.4-1.2
			c-0.15,0-0.69,0.1-1.6,0.29c-0.38,0.08-0.69,0.11-0.91,0.11c-1.41,0-2.11-0.61-2.11-1.83c0-1.29,0.78-1.94,2.34-1.94
			c0.42,0,0.99,0.04,1.71,0.11c0.72,0.08,1.35,0.11,1.88,0.11c0.19,0,0.4,0,0.63,0s0.36,0,0.4,0l1.37-0.23h0.17
			C62.75,52.33,63.21,52.88,63.21,53.99z"/>
	</g>
	<polyline class="st4" points="40.38,114.22 115.33,114.22 115.33,81.06 	"/>
	<line class="st4" x1="12.69" y1="12.64" x2="50.35" y2="12.64"/>
	<g>
		<g>
			<path class="st1" d="M63.17,146.97h3.44c3.12,0,5.27,2.14,5.27,4.93v0.03c0,2.79-2.15,4.96-5.27,4.96h-3.44V146.97z
				 M66.61,155.85c2.51,0,4.11-1.7,4.11-3.9v-0.03c0-2.2-1.6-3.92-4.11-3.92h-2.32v7.85H66.61z"/>
			<path class="st1" d="M75.67,146.97h7.17v1.02h-6.05v3.39h5.41v1.02h-5.41v3.47h6.12v1.02h-7.24V146.97z"/>
			<path class="st1" d="M85.93,155.44l0.69-0.82c1.03,0.93,2.03,1.4,3.4,1.4c1.33,0,2.21-0.71,2.21-1.69v-0.03
				c0-0.92-0.5-1.45-2.58-1.88c-2.28-0.5-3.33-1.23-3.33-2.86v-0.03c0-1.56,1.37-2.71,3.26-2.71c1.45,0,2.48,0.41,3.49,1.22
				l-0.65,0.86c-0.92-0.75-1.84-1.08-2.86-1.08c-1.29,0-2.11,0.71-2.11,1.6v0.03c0,0.94,0.51,1.46,2.69,1.93
				c2.21,0.48,3.23,1.29,3.23,2.81v0.03c0,1.7-1.42,2.81-3.39,2.81C88.41,157.03,87.12,156.5,85.93,155.44z"/>
			<path class="st1" d="M97.16,146.97h1.12v9.92h-1.12V146.97z"/>
			<path class="st1" d="M102.17,151.95v-0.03c0-2.72,2-5.13,4.97-5.13c1.67,0,2.71,0.48,3.7,1.32l-0.72,0.85
				c-0.76-0.67-1.62-1.13-3.02-1.13c-2.2,0-3.77,1.86-3.77,4.07v0.03c0,2.37,1.52,4.12,3.92,4.12c1.13,0,2.18-0.44,2.86-0.99v-2.47
				h-3.02v-1.01h4.09v3.95c-0.92,0.82-2.31,1.52-3.98,1.52C104.09,157.05,102.17,154.79,102.17,151.95z"/>
			<path class="st1" d="M115.13,146.97h1.05l6.25,7.95v-7.95h1.09v9.92h-0.89l-6.4-8.13v8.13h-1.09V146.97z"/>
		</g>
	</g>
	<g>
		<path class="st2" d="M55.9,152.5h-2.99v-1.04h2.99v-2.98h1.08v2.98h2.99v1.04h-2.99v2.98H55.9V152.5z"/>
	</g>
</g>
<g id="Text">
</g>
<g id="Div">
</g>
</svg>
